<svg xmlns="http://www.w3.org/2000/svg" width="527" height="214" viewBox="0 0 527 214"><path fill="#fff" d="M0 0h527v214H0z"/><path fill="#010317" d="M211.674 39.703c13.262-.97 27.401 2.07 38.655 9.303 3.785 2.433 7.185 5.524 10.443 8.606-2.505 2.106-10.835 9.613-12.852 12.205-11.348-13.201-31.603-16.763-47.392-9.975-10.278 4.418-18.975 14.535-21.015 25.66a35.98 35.98 0 0 0 5.87 26.87c14.042 20.18 46.647 22.201 61.169 1.368 2.488-3.568 3.284-6.758 4.015-10.943-11.118-.255-22.419.176-33.531-.176.08-2.615.04-5.463.055-8.097-.009-2.525.066-5.132.111-7.664 5.479.22 11.832.095 17.369.1l34.918.022c.444 14.601.07 26.972-9.738 38.841-19.944 24.138-57.628 25.524-81.238 6.124a52.16 52.16 0 0 1-18.711-35.056 50.42 50.42 0 0 1 11.306-36.692c10.376-12.513 24.579-18.984 40.566-20.496"/><path fill="#010317" d="m285.748 42.183 80.886.087q.056 8.126-.028 16.25c-20.256.287-40.528.006-60.779.162-.094 8.656-.025 17.481-.015 26.14 16.968.274 34.524.087 51.523.116q.157 7.712.078 15.426l-45.086.049a109 109 0 0 0-6.393.076q-.203 13.356-.182 26.714l61.558.057q.078 8.38-.026 16.757l-81.576.071a407 407 0 0 1-.06-15.265c.435-28.778-.604-57.896.1-86.64"/><path fill="#010317" d="M429.998 39.704c16.835-1.66 34.045 4.182 46.264 15.638 21.57 20.223 21.902 54.624-.061 74.675-10.621 9.698-21.451 14.5-35.932 14.805.244-1.057 1.488-4.108 1.92-5.259 1.44-3.838 2.808-7.355 3.863-11.333 5.107-1.659 9.026-3.005 13.382-6.325 11.738-8.946 17.39-21.866 14.514-36.397-1.239-6.21-4.264-11.87-8.611-16.443-19.934-20.97-56.375-15.748-66.858 12.407a31.22 31.22 0 0 0 .748 23.53c-2.672 1.464-13.405 8.47-15.2 10.57a47.4 47.4 0 0 1-5.248-17.448c-2.171-20.331 7.847-38.556 24.704-49.515 8.277-5.382 16.788-7.85 26.515-8.905"/><path fill="#4d31da" d="M108.069 78.061c-.485-8.999.152-20.022-.066-29.247-.089-3.777-.214-17.319.33-20.241a15.27 15.27 0 0 1 3.666-7.39 14.14 14.14 0 0 1 9.838-4.687c8.307-.42 15.509 5.883 15.545 14.258.025 5.898.062 11.796.065 17.695l.024 32.827.015 23.803c.001 3.277.169 9.317-.084 12.337.194 3.359-.007 6.927.096 10.307.143 4.713-.53 9.342-4.011 12.811-5.767 5.747-15.651 5.75-21.38-.054-3.654-3.69-4.068-7.959-4.095-12.922-.026-4.689-.014-9.385-.012-14.075z"/><path fill="#9367e3" d="M108.069 78.061c-.485-8.999.152-20.022-.066-29.247-.089-3.777-.214-17.319.33-20.241a15.27 15.27 0 0 1 3.666-7.39 14.14 14.14 0 0 1 9.838-4.687c8.307-.42 15.509 5.883 15.545 14.258.025 5.898.062 11.796.065 17.695l.024 32.827.015 23.803c.001 3.277.169 9.317-.084 12.337-.144-1.099-.143-2.071-.15-3.17-.075-12.518-.03-25.038-.315-37.553-.037-1.61.041-3.132-.146-4.745-1.35-1.53-2.127-.808-3.949-1.103-1.565-.254-3.123-.674-4.674-.98-3.497-.69-6.843-2.032-10.181-3.248-.487-.177-2.381-2.07-2.831-2.212-3.037-.958-3.87-1.285-6.439-3.299.013 4.704.02 12.253-.648 16.955"/><path fill="#4d31da" d="M66.122 110.613c-.734-13.796.355-28.51-.064-42.369-.386-12.76 14.903-18.779 23.916-10.441 1.734 1.55 3.429 4.106 3.846 6.42.776 6.214.505 13.008.515 19.287l.053 27.317.028 13.633c.003 1.747.1 6.015-.19 7.609.081 3.769-2.635 8.082-5.708 10.154-5.718 3.853-13.782 3.461-18.648-1.563a13.04 13.04 0 0 1-3.227-5.74c-.993-3.781-.612-19.53-.521-24.307"/><path fill="#9367e3" d="M66.122 110.613c-.734-13.796.355-28.51-.064-42.369-.386-12.76 14.903-18.779 23.916-10.441 1.734 1.55 3.429 4.106 3.846 6.42.776 6.214.505 13.008.515 19.287l.053 27.317.028 13.633c.003 1.747.1 6.015-.19 7.609-.322-4.004-.09-12.788-.1-17.142a945 945 0 0 0-.311-32.707c-.05-2.569.219-5.149.117-7.704-.047-1.194-.346-1.286-1.141-1.983-.893-.186-1.184.208-2.138.725-4.343.279-16.907-4.594-21.092-6.481-1.586-1.74-.583-1.73-1.292-3.678-.247-.677-.245-.44-.233-1.228l.004-.208c-1.78 1.66-1.273 10.468-1.298 12.974L66.38 96.86c-.028 3.206.115 10.908-.258 13.752"/><defs><linearGradient id="a" x1="33.995" x2="43.15" y1="143.464" y2="85.013" gradientUnits="userSpaceOnUse"><stop offset="0" stop-color="#200ccd"/><stop offset="1" stop-color="#6b4aea"/></linearGradient></defs><path fill="url(#a)" d="M36.38 84.154c3.168-.404 6.596.146 9.406 1.687a12.98 12.98 0 0 1 6.226 7.816c1.229 4.284.66 16.801.576 22.102-.192 12.104 3.35 24.677-10.98 28.66-9.22 1.821-16.914-4.545-17.075-13.907-.18-9.09.125-18.319-.068-27.402-.209-9.816 1.59-16.246 11.916-18.956"/><defs><linearGradient id="b" x1="410.353" x2="427.741" y1="135.722" y2="91.978" gradientUnits="userSpaceOnUse"><stop offset="0" stop-color="#3920db"/><stop offset="1" stop-color="#8662ea"/></linearGradient></defs><path fill="url(#b)" d="M433.845 96.323c2.358-1.537 12.567-8.233 14.691-7.769.496.109.694.34 1.052.67 1.064 2.456-2.698 11.209-3.967 13.715-.076 1.062-1.564 4.795-2.007 5.982-3.861 10.345-7.744 20.677-11.47 31.073-.582 1.622-1.468 3.671-3.238 4.002-1.38-.723-9.005-17.533-10.484-20.431-3.473-.554-23.644-1.304-25.173-3.068-.129-.148-.052-.512-.045-.71 1.732-2.792 25.348-14.11 29.242-17.199 1.08-.857 9.998-5.627 11.399-6.265"/><path fill="#9367e3" d="M433.845 96.323c2.358-1.537 12.567-8.233 14.691-7.769.496.109.694.34 1.052.67 1.064 2.456-2.698 11.209-3.967 13.715-.214-1.033.283-2.086.639-3.104-2.545-1.23-5.506-1.968-8.203-2.745-.249-.071-1.123-1.07-1.354-1.335-.872-.138-1.506.546-2.858.568"/><path fill="#4d31da" d="M196.989 174.148c5.833-.073 15.684-1.616 13.955 7.396-.367 1.916-1.637 2.705-3.129 3.672 1.284 1.846 2.863 5.074 4.15 7.199-1.327.02-2.696.001-4.026-.001-1.289-.6-2.589-6.812-5.707-7.138-1.798.373-1.45 1.74-1.472 3.17-.021 1.319-.009 2.645-.01 3.965l-3.732-.002q.066-9.13-.029-18.261"/><path fill="#fff" d="M200.763 177.23c3.171-.163 9.234.117 5.702 4.856-1.541.78-3.958.694-5.738.758-.032-1.823.021-3.78.036-5.614"/><path fill="#4d31da" d="m420.419 174.193 3.643-.072c-.007 6.07.204 12.302.079 18.328-1.232.035-2.601.003-3.844.001-1.234-2.363-6.34-10.004-7.998-12.222.126 4.053.107 8.11-.057 12.162l-3.858.05c.048-5.952-.184-12.407.033-18.253l4.046-.016c2.101 3.651 5.67 8.827 8.066 12.369-.074-4.016-.232-8.357-.11-12.347"/><path fill="#4d31da" d="M352.202 173.981c5.258-.497 7.863 1.164 9.825 6.004-1.174.14-2.495.226-3.684.327-4.806-8.393-14.598 2.159-6.309 8.743l.109.021c4.299.79 4.616-.041 7.099-3.519-1.361-.165-3.06.075-4.371-.252-.474-.118-.538-.616-.733-1.128.118-.651.131-.787.473-1.379 1.346-.881 5.887-.497 7.808-.478.141 2.203.021 4.342-1.019 6.328a7.7 7.7 0 0 1-4.578 3.744c-11.769 3.644-17.373-14.597-4.62-18.411"/><path fill="#4d31da" d="M34.663 174.086c1.3.148 3.147.071 4.502.052 1.437 4.95 4.659 13.158 6.428 18.315l-3.955-.008c-.438-1.835-.486-4.226-2.588-4.303l-6.168.162c-.232 1.324-.668 2.744-1.03 4.048-1.181.081-2.896.023-4.12.015 2.235-6.361 4.23-12.091 6.93-18.281"/><path fill="#fff" d="M36.558 178.159c.824.702 2.356 5.612 2.445 6.866-.476.313-1.695.189-2.34.175-.809.037-1.55.132-2.309-.15.168-1.308 1.681-5.567 2.204-6.891"/><path fill="#4d31da" d="m320.252 174.237 4.472-.083c.437 1.721 1.66 4.8 2.294 6.549a438 438 0 0 1 4.135 11.726c-1.301.051-2.758.021-4.074.019-.497-2.221-.337-4.055-2.786-4.202l-5.683.009c-.266 1.184-.862 2.94-1.235 4.147l-4.216.039c1.158-2.751 5.964-16.753 7.093-18.204"/><path fill="#fff" d="m322.042 178.576.517.289c.573 1.424 2.44 5.202 1.59 6.423l-1.137-.069c-1.06-.034-2.239.091-3.305.174.92-2.358 1.578-4.404 2.335-6.817"/><path fill="#4d31da" d="m170.696 174.262 4.232-.124a264 264 0 0 0 6.549 18.218l-4.06.115c-.22-1.026-.543-2.988-1.173-3.83-.346-.462-.806-.349-1.457-.388-1.991-.024-4.138.063-6.141.106l-1.014 4.011c-1.204.061-2.698.034-3.926.045.714-2.516 5.819-17.24 6.99-18.153"/><path fill="#fff" d="m172.243 178.326.554.364c.531 1.559 1.745 4.857 1.85 6.323-.545.316-1.85.194-2.554.182l-2.208.171c.977-2.467 1.602-4.506 2.358-7.04"/><path fill="#4d31da" d="M271.987 174.19c1.184-.085 2.606-.086 3.812-.114.02 6.059.106 12.294-.062 18.335-1.139.033-2.522-.018-3.681-.031l-.076-7.784-7.677-.022-.119 7.632c-1.241.162-2.626.168-3.886.207.157-6.041-.161-12.334.099-18.335l3.847.076c-.119 2.672-.038 4.675.088 7.346l7.561.031c.104-2.403.08-4.927.094-7.341"/><path fill="#4d31da" d="M110.068 173.981c4.965-.253 7.072.589 8.701 5.496-2.797.063-2.928.581-4.934-1.647-1.265-1.405-5.495-.882-5.05 1.733 1.311 2.52 9.665 1.697 10.131 6.38.46 4.622-2.867 6.234-6.725 6.77-4.849-.137-6.127-.967-8.166-5.358.794-.323 2.598-.817 3.49-1.087 1.464 2.465 3.91 4.983 7.136 1.959.392-.367.243-1.165.139-1.663-.91-1.215-2.538-1.557-3.885-1.94-3.585-1.021-8.534-2.958-5.597-7.538 1.384-2.159 2.372-2.528 4.76-3.105"/><path fill="#4d31da" d="M234.052 173.988c4.061-.367 7.674.574 9.514 4.769.246.561.073.851-.171 1.346-2.181 1.385-3.495-.65-5.087-1.805-7.761-5.629-11.084 10.831-2.537 11.153 1.497.057 2.679-1.049 3.582-2.092 1.108-1.679 2.772-1.966 4.273-.593.094.732.101 1.145-.356 1.788-2.95 4.147-7.773 5.624-12.271 2.994a8.52 8.52 0 0 1-3.926-5.214c-1.545-5.766.996-10.803 6.979-12.346"/><path fill="#4d31da" d="M448.347 173.978c5.466-.279 7.413 1.472 9.423 6.308-1.171-.002-2.648.122-3.842.193-1.247-2.166-2.254-3.568-4.995-3.233-9.003 1.103-2.842 19.488 5.045 9.161.682-.634 2.949-.098 3.973.031-2.286 5.793-7.753 8.623-13.275 4.877a9.55 9.55 0 0 1-4.004-6.119c-1.06-5.628 1.991-10.188 7.675-11.218"/><path fill="#4d31da" d="m378.981 174.195 12.417.01c.009.766.092 2.309-.336 2.869-1.722.277-6.27.177-8.238.175l.091 4.358c1.61.113 7.016-.379 7.736.613.05.893.102 1.132-.394 1.859-1.366 1.005-5.325.541-7.362.515l-.027 4.695c2.198.011 7.394-.71 8.761.867.071.848.124 1.074-.143 1.876-1.107.678-10.61.379-12.518.365q.056-9.1.013-18.202"/><path fill="#4d31da" d="M135.73 174.109c3.925.085 8.472-.049 12.441-.078l.017 3.193c-2.873.032-5.796.005-8.673.007l-.021 4.452c2.052.108 5.812-.2 7.485.212l.265.461c.017.793.085 1.112-.409 1.728-1.285.927-5.37.525-7.392.566l.069 4.619q4.359-.007 8.716-.072l.03 3.172c-4.168-.026-8.433.037-12.606.07q.115-9.165.078-18.33"/><path fill="#4d31da" d="M485.155 174.087c1.348.083 2.815.088 4.175.116-1.361 2.103-2.618 4.505-3.832 6.712-3.12 5.324-2.834 5.266-2.744 11.519l-3.78-.028c.023-11.979-1.95-8.023-6.08-18.006l-.073-.177 3.942-.087c.931 2.162 3.012 5.778 4.193 7.968 1.371-2.752 2.925-5.105 4.199-8.017"/><path fill="#4d31da" d="m61.85 174.128 3.899-.018-.01 18.175c-1.133.288-2.78.152-3.985.116.004-5.985-.087-12.317.095-18.273"/></svg>